SimonWriting.ufo
<glyph name="percent" format="1">
  <advance width="598"/>
  <unicode hex="0025"/>
  <outline>
    <contour>
      <point x="230" y="868" type="curve" smooth="yes"/>
      <point x="254" y="868"/>
      <point x="280" y="862"/>
      <point x="306" y="846" type="curve"/>
      <point x="310" y="834"/>
      <point x="312" y="822"/>
      <point x="312" y="810" type="curve" smooth="yes"/>
      <point x="312" y="715"/>
      <point x="196" y="629"/>
      <point x="118" y="627" type="curve"/>
      <point x="116" y="627" type="line" smooth="yes"/>
      <point x="85" y="627"/>
      <point x="56" y="650"/>
      <point x="39" y="663" type="curve"/>
      <point x="50" y="753"/>
      <point x="130" y="868"/>
    </contour>
    <contour>
      <point x="238" y="797" type="line"/>
      <point x="186" y="796"/>
      <point x="132" y="759"/>
      <point x="124" y="700" type="curve"/>
      <point x="190" y="707"/>
      <point x="225" y="744"/>
      <point x="245" y="797" type="curve"/>
    </contour>
    <contour>
      <point x="528" y="775" type="curve" smooth="yes"/>
      <point x="541" y="775"/>
      <point x="553" y="770"/>
      <point x="561" y="754" type="curve"/>
      <point x="522" y="675"/>
      <point x="443" y="613"/>
      <point x="379" y="542" type="curve" smooth="yes"/>
      <point x="284" y="436"/>
      <point x="237" y="342"/>
      <point x="118" y="274" type="curve" smooth="yes"/>
      <point x="112" y="271"/>
      <point x="85" y="252"/>
      <point x="62" y="252" type="curve" smooth="yes"/>
      <point x="50" y="252"/>
      <point x="39" y="257"/>
      <point x="33" y="274" type="curve" smooth="yes"/>
      <point x="31" y="279"/>
      <point x="30" y="284"/>
      <point x="30" y="289" type="curve" smooth="yes"/>
      <point x="30" y="338"/>
      <point x="118" y="355"/>
      <point x="136" y="371" type="curve"/>
      <point x="248" y="462"/>
      <point x="380" y="684"/>
      <point x="501" y="766" type="curve" smooth="yes"/>
      <point x="508" y="771"/>
      <point x="518" y="775"/>
    </contour>
    <contour>
      <point x="444" y="457" type="curve" smooth="yes"/>
      <point x="500" y="456"/>
      <point x="568" y="393"/>
      <point x="568" y="340" type="curve" smooth="yes"/>
      <point x="568" y="296"/>
      <point x="523" y="281"/>
      <point x="501" y="244" type="curve"/>
      <point x="391" y="244" type="line"/>
      <point x="384" y="272"/>
      <point x="381" y="299"/>
      <point x="381" y="326" type="curve" smooth="yes"/>
      <point x="381" y="364"/>
      <point x="387" y="402"/>
      <point x="397" y="438" type="curve"/>
      <point x="410" y="452"/>
      <point x="427" y="457"/>
    </contour>
  </outline>
</glyph>
<glyph name="esperluette" format="1">
  <advance width="576"/>
  <unicode hex="0026"/>
  <outline>
    <contour>
      <point x="357" y="797" type="curve"/>
      <point x="319" y="706"/>
      <point x="267" y="628"/>
      <point x="173" y="593" type="curve"/>
      <point x="198" y="496"/>
      <point x="287" y="462"/>
      <point x="357" y="409" type="curve"/>
      <point x="423" y="418"/>
      <point x="427" y="488"/>
      <point x="459" y="531" type="curve"/>
      <point x="478" y="587"/>
      <point x="522" y="618"/>
      <point x="541" y="674" type="curve"/>
      <point x="544" y="665"/>
      <point x="546" y="655"/>
      <point x="546" y="645" type="curve" smooth="yes"/>
      <point x="546" y="574"/>
      <point x="478" y="465"/>
      <point x="439" y="409" type="curve"/>
      <point x="439" y="405" type="line" smooth="yes"/>
      <point x="439" y="337"/>
      <point x="512" y="344"/>
      <point x="541" y="307" type="curve"/>
      <point x="531" y="290"/>
      <point x="517" y="284"/>
      <point x="502" y="284" type="curve" smooth="yes"/>
      <point x="466" y="284"/>
      <point x="421" y="319"/>
      <point x="398" y="327" type="curve"/>
      <point x="354" y="283"/>
      <point x="291" y="257"/>
      <point x="234" y="225" type="curve"/>
      <point x="223" y="225" type="line" smooth="yes"/>
      <point x="116" y="225"/>
      <point x="30" y="332"/>
      <point x="30" y="431" type="curve" smooth="yes"/>
      <point x="30" y="477"/>
      <point x="49" y="521"/>
      <point x="91" y="552" type="curve"/>
      <point x="91" y="613"/>
      <point x="38" y="621"/>
      <point x="30" y="674" type="curve"/>
      <point x="30" y="677" type="line" smooth="yes"/>
      <point x="30" y="783"/>
      <point x="138" y="878"/>
      <point x="235" y="878" type="curve" smooth="yes"/>
      <point x="283" y="878"/>
      <point x="329" y="854"/>
    </contour>
    <contour>
      <point x="112" y="613" type="curve"/>
      <point x="208" y="646"/>
      <point x="282" y="702"/>
      <point x="296" y="818" type="curve"/>
      <point x="274" y="830"/>
      <point x="251" y="835"/>
      <point x="230" y="835" type="curve" smooth="yes"/>
      <point x="149" y="835"/>
      <point x="83" y="758"/>
      <point x="83" y="686" type="curve" smooth="yes"/>
      <point x="83" y="660"/>
      <point x="92" y="634"/>
    </contour>
    <contour>
      <point x="153" y="286" type="curve"/>
      <point x="164" y="285"/>
      <point x="174" y="284"/>
      <point x="184" y="284" type="curve" smooth="yes"/>
      <point x="249" y="284"/>
      <point x="291" y="308"/>
      <point x="337" y="327" type="curve"/>
      <point x="300" y="405"/>
      <point x="231" y="453"/>
      <point x="153" y="491" type="curve"/>
      <point x="149" y="505"/>
      <point x="139" y="512"/>
      <point x="122" y="512" type="curve" smooth="yes"/>
      <point x="119" y="512"/>
      <point x="116" y="511"/>
      <point x="112" y="511" type="curve"/>
      <point x="88" y="487"/>
      <point x="79" y="460"/>
      <point x="79" y="433" type="curve" smooth="yes"/>
      <point x="79" y="379"/>
      <point x="117" y="324"/>
    </contour>
  </outline>
</glyph>
<glyph name="numéro 1" format="1">
  <advance width="457"/>
  <unicode hex="0031"/>
  <outline>
    <contour>
      <point x="383" y="686" type="curve"/>
      <point x="377" y="687"/>
      <point x="371" y="687"/>
      <point x="365" y="687" type="curve" smooth="yes"/>
      <point x="250" y="687"/>
      <point x="150" y="515"/>
      <point x="30" y="466" type="curve"/>
      <point x="144" y="673"/>
      <point x="328" y="680"/>
      <point x="427" y="885" type="curve"/>
      <point x="418" y="690"/>
      <point x="380" y="481"/>
      <point x="380" y="307" type="curve" smooth="yes"/>
      <point x="380" y="278"/>
      <point x="381" y="250"/>
      <point x="383" y="223" type="curve"/>
      <point x="345" y="254"/>
      <point x="330" y="336"/>
      <point x="330" y="424" type="curve" smooth="yes"/>
      <point x="330" y="531"/>
      <point x="352" y="645"/>
    </contour>
  </outline>
</glyph>
<glyph name="iminuscule" format="1">
  <advance width="204"/>
  <unicode hex="003B"/>
  <outline>
    <contour>
      <point x="133" y="650" type="line"/>
      <point x="134" y="650" type="line" smooth="yes"/>
      <point x="163" y="650"/>
      <point x="174" y="640"/>
      <point x="174" y="625" type="curve" smooth="yes"/>
      <point x="174" y="592"/>
      <point x="117" y="538"/>
      <point x="81" y="538" type="curve" smooth="yes"/>
      <point x="64" y="538"/>
      <point x="51" y="550"/>
      <point x="51" y="582" type="curve" smooth="yes"/>
      <point x="51" y="622"/>
      <point x="99" y="648"/>
      <point x="124" y="650" type="curve"/>
    </contour>
    <contour>
      <point x="112" y="359" type="curve"/>
      <point x="148" y="346"/>
      <point x="163" y="306"/>
      <point x="163" y="261" type="curve" smooth="yes"/>
      <point x="163" y="181"/>
      <point x="118" y="84"/>
      <point x="68" y="84" type="curve" smooth="yes"/>
      <point x="62" y="84" type="line"/>
      <point x="39" y="87"/>
      <point x="30" y="99"/>
      <point x="30" y="113" type="curve" smooth="yes"/>
      <point x="30" y="136"/>
      <point x="53" y="165"/>
      <point x="73" y="179" type="curve"/>
      <point x="88" y="237"/>
      <point x="64" y="334"/>
    </contour>
  </outline>
</glyph>
<glyph name="plus" format="1">
  <advance width="491"/>
  <unicode hex="003C"/>
  <outline>
    <contour>
      <point x="177" y="640" type="curve"/>
      <point x="209" y="464"/>
      <point x="375" y="423"/>
      <point x="461" y="301" type="curve"/>
      <point x="455" y="267"/>
      <point x="427" y="255"/>
      <point x="406" y="236" type="curve"/>
      <point x="250" y="322"/>
      <point x="124" y="438"/>
      <point x="30" y="585" type="curve"/>
      <point x="64" y="679"/>
      <point x="160" y="869"/>
      <point x="255" y="869" type="curve" smooth="yes"/>
      <point x="259" y="869" type="line"/>
      <point x="304" y="867"/>
      <point x="321" y="854"/>
      <point x="321" y="835" type="curve" smooth="yes"/>
      <point x="321" y="785"/>
      <point x="199" y="691"/>
    </contour>
  </outline>
</glyph>
<glyph name="point" format="1">
  <advance width="331"/>
  <unicode hex="003F"/>
  <outline>
    <contour>
      <point x="184" y="336" type="curve"/>
      <point x="180" y="292"/>
      <point x="150" y="273"/>
      <point x="137" y="237" type="curve"/>
      <point x="112" y="231"/>
      <point x="87" y="225"/>
      <point x="58" y="223" type="curve"/>
      <point x="44" y="238"/>
      <point x="40" y="256"/>
      <point x="40" y="276" type="curve" smooth="yes"/>
      <point x="40" y="307"/>
      <point x="50" y="342"/>
      <point x="51" y="375" type="curve"/>
      <point x="63" y="383"/>
      <point x="76" y="386"/>
      <point x="88" y="386" type="curve" smooth="yes"/>
      <point x="125" y="386"/>
      <point x="159" y="356"/>
    </contour>
    <contour>
      <point x="91" y="534" type="curve"/>
      <point x="80" y="546"/>
      <point x="78" y="568"/>
      <point x="78" y="592" type="curve" smooth="yes"/>
      <point x="78" y="633" type="line"/>
      <point x="78" y="647" type="line"/>
      <point x="113" y="656"/>
      <point x="144" y="682"/>
      <point x="167" y="682" type="curve" smooth="yes"/>
      <point x="171" y="682"/>
      <point x="174" y="682"/>
      <point x="177" y="680" type="curve"/>
      <point x="207" y="708"/>
      <point x="223" y="765"/>
      <point x="223" y="820" type="curve" smooth="yes"/>
      <point x="223" y="875"/>
      <point x="207" y="928"/>
      <point x="170" y="951" type="curve"/>
      <point x="166" y="951" type="line" smooth="yes"/>
      <point x="128" y="951"/>
      <point x="116" y="925"/>
      <point x="98" y="905" type="curve"/>
      <point x="104" y="873"/>
      <point x="125" y="857"/>
      <point x="131" y="825" type="curve"/>
      <point x="121" y="815"/>
      <point x="109" y="811"/>
      <point x="96" y="811" type="curve" smooth="yes"/>
      <point x="69" y="811"/>
      <point x="41" y="829"/>
      <point x="31" y="845" type="curve"/>
      <point x="30" y="854"/>
      <point x="30" y="863"/>
      <point x="30" y="872" type="curve" smooth="yes"/>
      <point x="30" y="972"/>
      <point x="89" y="1035"/>
      <point x="161" y="1035" type="curve" smooth="yes"/>
      <point x="190" y="1035"/>
      <point x="220" y="1025"/>
      <point x="250" y="1004" type="curve"/>
      <point x="286" y="953"/>
      <point x="301" y="894"/>
      <point x="301" y="835" type="curve" smooth="yes"/>
      <point x="301" y="696"/>
      <point x="214" y="559"/>
    </contour>
  </outline>
</glyph>
<glyph name="majuscule" format="1">
  <advance width="1409"/>
  <unicode hex="005A"/>
  <outline>
    <contour>
      <point x="426" y="239" type="line"/>
      <point x="494" y="199"/>
      <point x="567" y="185"/>
      <point x="645" y="185" type="curve" smooth="yes"/>
      <point x="837" y="185"/>
      <point x="1050" y="272"/>
      <point x="1224" y="272" type="curve" smooth="yes"/>
      <point x="1281" y="272"/>
      <point x="1333" y="263"/>
      <point x="1379" y="239" type="curve"/>
      <point x="1364" y="161"/>
      <point x="1307" y="146"/>
      <point x="1241" y="146" type="curve" smooth="yes"/>
      <point x="1197" y="146"/>
      <point x="1150" y="152"/>
      <point x="1106" y="152" type="curve" smooth="yes"/>
      <point x="1090" y="152"/>
      <point x="1075" y="152"/>
      <point x="1061" y="149" type="curve" smooth="yes"/>
      <point x="901" y="121"/>
      <point x="716" y="59"/>
      <point x="564" y="59" type="curve" smooth="yes"/>
      <point x="472" y="59"/>
      <point x="392" y="81"/>
      <point x="336" y="149" type="curve"/>
      <point x="336" y="154" type="line" smooth="yes"/>
      <point x="336" y="370"/>
      <point x="572" y="414"/>
      <point x="698" y="512" type="curve" smooth="yes"/>
      <point x="828" y="612"/>
      <point x="980" y="678"/>
      <point x="1061" y="830" type="curve"/>
      <point x="1010" y="908"/>
      <point x="934" y="932"/>
      <point x="848" y="932" type="curve" smooth="yes"/>
      <point x="738" y="932"/>
      <point x="615" y="893"/>
      <point x="516" y="875" type="curve" smooth="yes"/>
      <point x="336" y="843"/>
      <point x="183" y="741"/>
      <point x="30" y="739" type="curve"/>
      <point x="40" y="777"/>
      <point x="53" y="815"/>
      <point x="65" y="853" type="curve"/>
      <point x="333" y="877"/>
      <point x="617" y="1042"/>
      <point x="879" y="1042" type="curve" smooth="yes"/>
      <point x="973" y="1042"/>
      <point x="1065" y="1021"/>
      <point x="1152" y="965" type="curve"/>
      <point x="1154" y="950"/>
      <point x="1154" y="937"/>
      <point x="1154" y="923" type="curve" smooth="yes"/>
      <point x="1154" y="596"/>
      <point x="869" y="524"/>
      <point x="653" y="376" type="curve" smooth="yes"/>
      <point x="587" y="330"/>
      <point x="524" y="239"/>
      <point x="437" y="239" type="curve" smooth="yes"/>
    </contour>
  </outline>
</glyph>
<glyph name="antiSlash" format="1">
  <advance width="299"/>
  <unicode hex="005C"/>
  <outline>
    <contour>
      <point x="269" y="286" type="curve"/>
      <point x="262" y="271"/>
      <point x="249" y="265"/>
      <point x="235" y="265" type="curve" smooth="yes"/>
      <point x="209" y="265"/>
      <point x="177" y="286"/>
      <point x="167" y="305" type="curve" smooth="yes"/>
      <point x="167" y="307"/>
      <point x="166" y="309"/>
      <point x="166" y="311" type="curve" smooth="yes"/>
      <point x="166" y="328"/>
      <point x="186" y="327"/>
      <point x="187" y="344" type="curve"/>
      <point x="130" y="496"/>
      <point x="70" y="645"/>
      <point x="30" y="814" type="curve"/>
      <point x="39" y="816"/>
      <point x="38" y="826"/>
      <point x="49" y="826" type="curve" smooth="yes"/>
      <point x="53" y="826" type="line"/>
      <point x="69" y="815"/>
      <point x="78" y="795"/>
      <point x="93" y="783" type="curve"/>
      <point x="131" y="596"/>
      <point x="205" y="446"/>
    </contour>
  </outline>
</glyph>
<glyph name="cminuscule" format="1">
  <advance width="843"/>
  <unicode hex="0063"/>
  <outline>
    <contour>
      <point x="510" y="800" type="curve"/>
      <point x="344" y="743"/>
      <point x="185" y="806"/>
      <point x="120" y="583" type="curve"/>
      <point x="143" y="343"/>
      <point x="386" y="322"/>
      <point x="649" y="322" type="curve" smooth="yes"/>
      <point x="703" y="322"/>
      <point x="758" y="323"/>
      <point x="813" y="323" type="curve"/>
      <point x="716" y="256"/>
      <point x="589" y="222"/>
      <point x="465" y="222" type="curve" smooth="yes"/>
      <point x="260" y="222"/>
      <point x="65" y="314"/>
      <point x="34" y="497" type="curve" smooth="yes"/>
      <point x="32" y="511"/>
      <point x="30" y="526"/>
      <point x="30" y="541" type="curve" smooth="yes"/>
      <point x="30" y="692"/>
      <point x="149" y="880"/>
      <point x="317" y="880" type="curve" smooth="yes"/>
      <point x="376" y="880"/>
      <point x="441" y="857"/>
    </contour>
  </outline>
</glyph>
<glyph name="g" format="1">
  <advance width="669"/>
  <unicode hex="0067"/>
  <outline>
    <contour>
      <point x="523" y="383" type="curve"/>
      <point x="523" y="392" type="line" smooth="yes"/>
      <point x="523" y="448"/>
      <point x="484" y="464"/>
      <point x="484" y="520" type="curve" smooth="yes"/>
      <point x="484" y="525"/>
      <point x="484" y="530"/>
      <point x="485" y="536" type="curve"/>
      <point x="475" y="557"/>
      <point x="466" y="565"/>
      <point x="457" y="565" type="curve" smooth="yes"/>
      <point x="424" y="565"/>
      <point x="392" y="453"/>
      <point x="321" y="453" type="curve" smooth="yes"/>
      <point x="312" y="453"/>
      <point x="302" y="455"/>
      <point x="292" y="459" type="curve"/>
      <point x="61" y="459" type="line"/>
      <point x="40" y="507"/>
      <point x="30" y="557"/>
      <point x="30" y="605" type="curve" smooth="yes"/>
      <point x="30" y="752"/>
      <point x="124" y="883"/>
      <point x="298" y="883" type="curve" smooth="yes"/>
      <point x="309" y="883"/>
      <point x="320" y="882"/>
      <point x="331" y="881" type="curve"/>
      <point x="331" y="875" type="line" smooth="yes"/>
      <point x="331" y="714"/>
      <point x="92" y="790"/>
      <point x="92" y="628" type="curve" smooth="yes"/>
      <point x="92" y="612"/>
      <point x="94" y="594"/>
      <point x="99" y="574" type="curve" smooth="yes"/>
      <point x="109" y="532"/>
      <point x="176" y="549"/>
      <point x="176" y="498" type="curve"/>
      <point x="191" y="498" type="line" smooth="yes"/>
      <point x="341" y="498"/>
      <point x="347" y="640"/>
      <point x="446" y="690" type="curve"/>
      <point x="615" y="667"/>
      <point x="557" y="417"/>
      <point x="639" y="306" type="curve"/>
      <point x="639" y="37" type="line"/>
      <point x="571" y="2"/>
      <point x="575" y="-104"/>
      <point x="485" y="-116" type="curve"/>
      <point x="477" y="-116"/>
      <point x="470" y="-117"/>
      <point x="463" y="-117" type="curve" smooth="yes"/>
      <point x="316" y="-117"/>
      <point x="254" y="-31"/>
      <point x="215" y="76" type="curve"/>
      <point x="248" y="248"/>
      <point x="350" y="350"/>
    </contour>
    <contour>
      <point x="446" y="344" type="curve"/>
      <point x="411" y="244"/>
      <point x="285" y="233"/>
      <point x="285" y="97" type="curve" smooth="yes"/>
      <point x="285" y="79"/>
      <point x="287" y="59"/>
      <point x="292" y="37" type="curve"/>
      <point x="362" y="22"/>
      <point x="387" y="-39"/>
      <point x="473" y="-39" type="curve" smooth="yes"/>
      <point x="485" y="-39" type="line"/>
      <point x="526" y="4"/>
      <point x="558" y="94"/>
      <point x="558" y="176" type="curve" smooth="yes"/>
      <point x="558" y="256"/>
      <point x="528" y="328"/>
    </contour>
  </outline>
</glyph>
<glyph name="i.minuscule" format="1">
  <advance width="212"/>
  <unicode hex="0069"/>
  <outline>
    <contour>
      <point x="71" y="881" type="curve"/>
      <point x="153" y="881" type="line"/>
      <point x="155" y="872"/>
      <point x="156" y="863"/>
      <point x="156" y="856" type="curve" smooth="yes"/>
      <point x="156" y="794"/>
      <point x="88" y="802"/>
      <point x="30" y="798" type="curve"/>
      <point x="38" y="831"/>
      <point x="71" y="840"/>
    </contour>
    <contour>
      <point x="71" y="552" type="curve"/>
      <point x="123" y="503"/>
      <point x="182" y="397"/>
      <point x="182" y="310" type="curve" smooth="yes"/>
      <point x="182" y="277"/>
      <point x="174" y="247"/>
      <point x="153" y="223" type="curve"/>
      <point x="74" y="267"/>
      <point x="53" y="324"/>
      <point x="53" y="394" type="curve" smooth="yes"/>
      <point x="53" y="441"/>
      <point x="63" y="494"/>
    </contour>
  </outline>
</glyph>
<glyph name="k.minuscule" format="1">
  <advance width="806"/>
  <unicode hex="006B"/>
  <outline>
    <contour>
      <point x="607" y="88" type="curve" smooth="yes"/>
      <point x="653" y="66"/>
      <point x="776" y="99"/>
      <point x="776" y="4" type="curve" smooth="yes"/>
      <point x="776" y="-1"/>
      <point x="776" y="-7"/>
      <point x="775" y="-13" type="curve"/>
      <point x="454" y="-10"/>
      <point x="385" y="245"/>
      <point x="205" y="389" type="curve"/>
      <point x="196" y="391"/>
      <point x="188" y="392"/>
      <point x="181" y="392" type="curve" smooth="yes"/>
      <point x="82" y="392"/>
      <point x="154" y="220"/>
      <point x="55" y="220" type="curve" smooth="yes"/>
      <point x="50" y="220"/>
      <point x="43" y="221"/>
      <point x="37" y="222" type="curve"/>
      <point x="32" y="269"/>
      <point x="30" y="313"/>
      <point x="30" y="354" type="curve" smooth="yes"/>
      <point x="30" y="592"/>
      <point x="102" y="756"/>
      <point x="104" y="992" type="curve"/>
      <point x="108" y="992"/>
      <point x="112" y="993"/>
      <point x="115" y="993" type="curve" smooth="yes"/>
      <point x="165" y="993"/>
      <point x="178" y="955"/>
      <point x="178" y="905" type="curve" smooth="yes"/>
      <point x="178" y="854"/>
      <point x="165" y="790"/>
      <point x="165" y="739" type="curve" smooth="yes"/>
      <point x="165" y="721"/>
      <point x="167" y="705"/>
      <point x="171" y="691" type="curve"/>
      <point x="184" y="660"/>
      <point x="222" y="653"/>
      <point x="266" y="653" type="curve" smooth="yes"/>
      <point x="303" y="653"/>
      <point x="344" y="658"/>
      <point x="381" y="658" type="curve" smooth="yes"/>
      <point x="423" y="658"/>
      <point x="459" y="651"/>
      <point x="473" y="624" type="curve"/>
      <point x="478" y="596"/>
      <point x="481" y="572"/>
      <point x="481" y="549" type="curve" smooth="yes"/>
      <point x="481" y="437"/>
      <point x="423" y="384"/>
      <point x="373" y="322" type="curve"/>
      <point x="401" y="222"/>
      <point x="506" y="202"/>
      <point x="574" y="155" type="curve" smooth="yes"/>
      <point x="587" y="146"/>
      <point x="596" y="93"/>
    </contour>
    <contour>
      <point x="339" y="423" type="curve"/>
      <point x="358" y="441"/>
      <point x="369" y="466"/>
      <point x="369" y="490" type="curve" smooth="yes"/>
      <point x="369" y="526"/>
      <point x="344" y="559"/>
      <point x="293" y="559" type="curve" smooth="yes"/>
      <point x="286" y="559"/>
      <point x="280" y="558"/>
      <point x="272" y="557" type="curve"/>
      <point x="271" y="544"/>
      <point x="270" y="533"/>
      <point x="270" y="522" type="curve" smooth="yes"/>
      <point x="270" y="466"/>
      <point x="290" y="430"/>
    </contour>
  </outline>
</glyph>
<glyph name="n.minuscule" format="1">
  <advance width="696"/>
  <unicode hex="006E"/>
  <outline>
    <contour>
      <point x="666" y="297" type="curve"/>
      <point x="653" y="295"/>
      <point x="641" y="294"/>
      <point x="630" y="294" type="curve" smooth="yes"/>
      <point x="429" y="294"/>
      <point x="564" y="630"/>
      <point x="401" y="668" type="curve"/>
      <point x="385" y="668" type="line" smooth="yes"/>
      <point x="142" y="668"/>
      <point x="264" y="306"/>
      <point x="30" y="297" type="curve"/>
      <point x="68" y="542"/>
      <point x="171" y="721"/>
      <point x="348" y="827" type="curve"/>
      <point x="589" y="785"/>
      <point x="612" y="525"/>
    </contour>
  </outline>
</glyph>
<glyph name="r.minuscule" format="1">
  <advance width="862"/>
  <unicode hex="0072"/>
  <outline>
    <contour>
      <point x="832" y="693" type="curve"/>
      <point x="781" y="697"/>
      <point x="732" y="699"/>
      <point x="685" y="699" type="curve" smooth="yes"/>
      <point x="509" y="699"/>
      <point x="361" y="670"/>
      <point x="230" y="626" type="curve"/>
      <point x="230" y="225" type="line"/>
      <point x="11" y="251"/>
      <point x="68" y="553"/>
      <point x="30" y="760" type="curve"/>
      <point x="211" y="768"/>
      <point x="424" y="879"/>
      <point x="591" y="879" type="curve" smooth="yes"/>
      <point x="696" y="879"/>
      <point x="783" y="835"/>
    </contour>
  </outline>
</glyph>
<glyph name="t.minuscule" format="1">
  <advance width="550"/>
  <unicode hex="0074"/>
  <outline>
    <contour>
      <point x="112" y="1124" type="curve"/>
      <point x="125" y="1127"/>
      <point x="136" y="1129"/>
      <point x="145" y="1129" type="curve" smooth="yes"/>
      <point x="188" y="1129"/>
      <point x="199" y="1097"/>
      <point x="199" y="1055" type="curve" smooth="yes"/>
      <point x="199" y="1013"/>
      <point x="188" y="960"/>
      <point x="188" y="918" type="curve" smooth="yes"/>
      <point x="188" y="903"/>
      <point x="190" y="890"/>
      <point x="193" y="879" type="curve"/>
      <point x="292" y="930"/>
      <point x="392" y="981"/>
      <point x="520" y="1002" type="curve"/>
      <point x="498" y="847"/>
      <point x="346" y="821"/>
      <point x="193" y="797" type="curve"/>
      <point x="193" y="788" type="line" smooth="yes"/>
      <point x="193" y="560"/>
      <point x="310" y="447"/>
      <point x="316" y="225" type="curve"/>
      <point x="170" y="307"/>
      <point x="112" y="476"/>
      <point x="112" y="703" type="curve" smooth="yes"/>
      <point x="112" y="715" type="line"/>
      <point x="111" y="755"/>
      <point x="62" y="747"/>
      <point x="30" y="756" type="curve"/>
      <point x="67" y="785"/>
      <point x="71" y="848"/>
      <point x="71" y="915" type="curve" smooth="yes"/>
      <point x="71" y="965" type="line" smooth="yes"/>
      <point x="71" y="1032"/>
      <point x="75" y="1095"/>
    </contour>
  </outline>
</glyph>
<glyph name="v.minuscule" format="1">
  <advance width="880"/>
  <unicode hex="0076"/>
  <outline>
    <contour>
      <point x="30" y="781" type="curve"/>
      <point x="220" y="734"/>
      <point x="220" y="497"/>
      <point x="358" y="398" type="curve"/>
      <point x="523" y="481"/>
      <point x="519" y="734"/>
      <point x="767" y="734" type="curve" smooth="yes"/>
      <point x="792" y="734"/>
      <point x="819" y="732"/>
      <point x="850" y="726" type="curve"/>
      <point x="712" y="555"/>
      <point x="564" y="392"/>
      <point x="413" y="234" type="curve"/>
      <point x="177" y="307"/>
      <point x="74" y="515"/>
    </contour>
  </outline>
</glyph>
<glyph name="y.minuscule" format="1">
  <advance width="639"/>
  <unicode hex="0079"/>
  <outline>
    <contour>
      <point x="143" y="885" type="curve"/>
      <point x="172" y="861"/>
      <point x="183" y="837"/>
      <point x="183" y="813" type="curve" smooth="yes"/>
      <point x="183" y="747"/>
      <point x="103" y="679"/>
      <point x="103" y="596" type="curve" smooth="yes"/>
      <point x="103" y="586"/>
      <point x="104" y="575"/>
      <point x="107" y="564" type="curve"/>
      <point x="111" y="502"/>
      <point x="167" y="491"/>
      <point x="233" y="491" type="curve" smooth="yes"/>
      <point x="272" y="491"/>
      <point x="316" y="495"/>
      <point x="355" y="495" type="curve" smooth="yes"/>
      <point x="368" y="495"/>
      <point x="381" y="494"/>
      <point x="393" y="493" type="curve"/>
      <point x="533" y="508"/>
      <point x="473" y="722"/>
      <point x="607" y="743" type="curve"/>
      <point x="608" y="679"/>
      <point x="609" y="616"/>
      <point x="609" y="553" type="curve" smooth="yes"/>
      <point x="609" y="235"/>
      <point x="584" y="-59"/>
      <point x="393" y="-186" type="curve"/>
      <point x="383" y="-187"/>
      <point x="373" y="-187"/>
      <point x="364" y="-187" type="curve" smooth="yes"/>
      <point x="222" y="-187"/>
      <point x="113" y="-85"/>
      <point x="113" y="32" type="curve" smooth="yes"/>
      <point x="113" y="66"/>
      <point x="122" y="102"/>
      <point x="143" y="136" type="curve"/>
      <point x="186" y="36"/>
      <point x="222" y="-71"/>
      <point x="321" y="-114" type="curve"/>
      <point x="483" y="-14"/>
      <point x="517" y="214"/>
      <point x="535" y="457" type="curve"/>
      <point x="456" y="421"/>
      <point x="366" y="398"/>
      <point x="281" y="398" type="curve" smooth="yes"/>
      <point x="188" y="398"/>
      <point x="100" y="425"/>
      <point x="36" y="493" type="curve"/>
      <point x="32" y="520"/>
      <point x="30" y="545"/>
      <point x="30" y="568" type="curve" smooth="yes"/>
      <point x="30" y="711"/>
      <point x="98" y="787"/>
    </contour>
  </outline>
</glyph>
<glyph name="accolade" format="1">
  <advance width="295"/>
  <unicode hex="007D"/>
  <outline>
    <contour>
      <point x="157" y="660" type="curve"/>
      <point x="169" y="645"/>
      <point x="195" y="645"/>
      <point x="204" y="627" type="curve"/>
      <point x="195" y="583"/>
      <point x="131" y="553"/>
      <point x="110" y="505" type="curve"/>
      <point x="184" y="495"/>
      <point x="251" y="459"/>
      <point x="251" y="386" type="curve" smooth="yes"/>
      <point x="251" y="375"/>
      <point x="249" y="363"/>
      <point x="246" y="350" type="curve" smooth="yes"/>
      <point x="233" y="301"/>
      <point x="173" y="262"/>
      <point x="110" y="247" type="curve" smooth="yes"/>
      <point x="96" y="244"/>
      <point x="78" y="238"/>
      <point x="62" y="238" type="curve" smooth="yes"/>
      <point x="50" y="238"/>
      <point x="40" y="241"/>
      <point x="35" y="251" type="curve"/>
      <point x="41" y="318"/>
      <point x="188" y="299"/>
      <point x="188" y="380" type="curve" smooth="yes"/>
      <point x="188" y="387"/>
      <point x="187" y="394"/>
      <point x="185" y="402" type="curve"/>
      <point x="157" y="450"/>
      <point x="81" y="448"/>
      <point x="30" y="472" type="curve"/>
      <point x="38" y="530"/>
      <point x="80" y="554"/>
      <point x="105" y="595" type="curve"/>
      <point x="98" y="613"/>
      <point x="95" y="628"/>
      <point x="95" y="642" type="curve" smooth="yes"/>
      <point x="95" y="712"/>
      <point x="170" y="743"/>
      <point x="190" y="801" type="curve"/>
      <point x="185" y="803"/>
      <point x="179" y="804"/>
      <point x="172" y="804" type="curve" smooth="yes"/>
      <point x="144" y="804"/>
      <point x="106" y="790"/>
      <point x="77" y="790" type="curve" smooth="yes"/>
      <point x="60" y="790"/>
      <point x="46" y="795"/>
      <point x="39" y="811" type="curve"/>
      <point x="56" y="848"/>
      <point x="119" y="872"/>
      <point x="175" y="872" type="curve" smooth="yes"/>
      <point x="222" y="872"/>
      <point x="265" y="855"/>
      <point x="265" y="810" type="curve" smooth="yes"/>
      <point x="265" y="748"/>
      <point x="176" y="706"/>
    </contour>
  </outline>
</glyph>
<glyph name="Aring" format="1">
  <advance width="487"/>
  <unicode hex="00C5"/>
  <outline>
    <contour>
      <point x="318" y="1134" type="curve" smooth="yes"/>
      <point x="347" y="1134"/>
      <point x="376" y="1124"/>
      <point x="400" y="1105" type="curve"/>
      <point x="400" y="1093" type="line" smooth="yes"/>
      <point x="400" y="1002"/>
      <point x="363" y="974"/>
      <point x="305" y="974" type="curve" smooth="yes"/>
      <point x="275" y="974"/>
      <point x="239" y="982"/>
      <point x="201" y="992" type="curve"/>
      <point x="199" y="1003"/>
      <point x="198" y="1012"/>
      <point x="198" y="1022" type="curve" smooth="yes"/>
      <point x="198" y="1094"/>
      <point x="257" y="1134"/>
    </contour>
    <contour>
      <point x="324" y="1084" type="curve" smooth="yes"/>
      <point x="297" y="1083"/>
      <point x="261" y="1054"/>
      <point x="258" y="1048" type="curve" smooth="yes"/>
      <point x="255" y="1043"/>
      <point x="254" y="1040"/>
      <point x="254" y="1037" type="curve" smooth="yes"/>
      <point x="254" y="1031"/>
      <point x="259" y="1028"/>
      <point x="266" y="1028" type="curve" smooth="yes"/>
      <point x="291" y="1028"/>
      <point x="345" y="1056"/>
      <point x="345" y="1072" type="curve" smooth="yes"/>
      <point x="345" y="1074"/>
      <point x="344" y="1076"/>
      <point x="343" y="1077" type="curve" smooth="yes"/>
      <point x="338" y="1082"/>
      <point x="332" y="1084"/>
    </contour>
    <contour>
      <point x="258" y="878" type="curve"/>
      <point x="478" y="751"/>
      <point x="365" y="447"/>
      <point x="457" y="224" type="curve"/>
      <point x="366" y="245"/>
      <point x="342" y="333"/>
      <point x="342" y="445" type="curve" smooth="yes"/>
      <point x="342" y="457"/>
      <point x="343" y="468"/>
      <point x="343" y="480" type="curve"/>
      <point x="329" y="483"/>
      <point x="317" y="484"/>
      <point x="306" y="484" type="curve" smooth="yes"/>
      <point x="243" y="484"/>
      <point x="216" y="447"/>
      <point x="153" y="447" type="curve" smooth="yes"/>
      <point x="142" y="447"/>
      <point x="130" y="448"/>
      <point x="116" y="451" type="curve"/>
      <point x="93" y="444"/>
      <point x="89" y="417"/>
      <point x="89" y="387" type="curve" smooth="yes"/>
      <point x="89" y="373"/>
      <point x="90" y="357"/>
      <point x="90" y="343" type="curve" smooth="yes"/>
      <point x="90" y="308"/>
      <point x="85" y="278"/>
      <point x="50" y="278" type="curve" smooth="yes"/>
      <point x="44" y="278"/>
      <point x="38" y="279"/>
      <point x="30" y="281" type="curve"/>
      <point x="30" y="308" type="line" smooth="yes"/>
      <point x="30" y="574"/>
      <point x="174" y="696"/>
    </contour>
    <contour>
      <point x="267" y="765" type="line" smooth="yes"/>
      <point x="264" y="765"/>
      <point x="261" y="764"/>
      <point x="258" y="764" type="curve"/>
      <point x="203" y="705"/>
      <point x="188" y="606"/>
      <point x="144" y="537" type="curve"/>
      <point x="151" y="537"/>
      <point x="159" y="538"/>
      <point x="167" y="538" type="curve" smooth="yes"/>
      <point x="192" y="538"/>
      <point x="218" y="536"/>
      <point x="243" y="536" type="curve" smooth="yes"/>
      <point x="296" y="536"/>
      <point x="341" y="544"/>
      <point x="343" y="594" type="curve"/>
      <point x="313" y="601"/>
      <point x="312" y="636"/>
      <point x="312" y="672" type="curve" smooth="yes"/>
      <point x="312" y="686" type="line" smooth="yes"/>
      <point x="312" y="726"/>
      <point x="310" y="765"/>
      <point x="269" y="765" type="curve" smooth="yes"/>
    </contour>
  </outline>
</glyph>
<glyph name="U" format="1">
  <advance width="1138"/>
  <unicode hex="00DA"/>
  <outline>
    <contour>
      <point x="57" y="1115" type="curve"/>
      <point x="158" y="1084"/>
      <point x="181" y="999"/>
      <point x="181" y="895" type="curve" smooth="yes"/>
      <point x="181" y="807"/>
      <point x="165" y="706"/>
      <point x="165" y="612" type="curve" smooth="yes"/>
      <point x="165" y="479"/>
      <point x="198" y="361"/>
      <point x="358" y="317" type="curve"/>
      <point x="770" y="359"/>
      <point x="808" y="621"/>
      <point x="808" y="907" type="curve" smooth="yes"/>
      <point x="808" y="967" type="line"/>
      <point x="927" y="919"/>
      <point x="952" y="838"/>
      <point x="952" y="751" type="curve" smooth="yes"/>
      <point x="952" y="687"/>
      <point x="939" y="620"/>
      <point x="939" y="558" type="curve" smooth="yes"/>
      <point x="939" y="466"/>
      <point x="967" y="385"/>
      <point x="1108" y="346" type="curve"/>
      <point x="1063" y="333"/>
      <point x="1027" y="328"/>
      <point x="997" y="328" type="curve" smooth="yes"/>
      <point x="920" y="328"/>
      <point x="877" y="362"/>
      <point x="808" y="405" type="curve"/>
      <point x="676" y="325"/>
      <point x="599" y="213"/>
      <point x="358" y="198" type="curve"/>
      <point x="91" y="315"/>
      <point x="30" y="524"/>
      <point x="30" y="760" type="curve" smooth="yes"/>
      <point x="30" y="874"/>
      <point x="44" y="995"/>
    </contour>
    <contour>
      <point x="808" y="1500" type="curve"/>
      <point x="759" y="1351"/>
      <point x="609" y="1263"/>
      <point x="358" y="1234" type="curve"/>
      <point x="446" y="1359"/>
      <point x="596" y="1448"/>
    </contour>
  </outline>
</glyph>
<glyph name="acircumflex" format="1">
  <advance width="687"/>
  <unicode hex="00E2"/>
  <outline>
    <contour>
      <point x="296" y="1239" type="curve"/>
      <point x="466" y="1209"/>
      <point x="488" y="1030"/>
      <point x="559" y="901" type="curve"/>
      <point x="551" y="901" type="line" smooth="yes"/>
      <point x="416" y="901"/>
      <point x="436" y="1055"/>
      <point x="371" y="1126" type="curve"/>
      <point x="361" y="1128"/>
      <point x="351" y="1129"/>
      <point x="343" y="1129" type="curve" smooth="yes"/>
      <point x="235" y="1129"/>
      <point x="282" y="973"/>
      <point x="174" y="973" type="curve" smooth="yes"/>
      <point x="166" y="973"/>
      <point x="156" y="974"/>
      <point x="146" y="976" type="curve"/>
      <point x="161" y="1098"/>
      <point x="224" y="1173"/>
    </contour>
    <contour>
      <point x="322" y="902" type="curve" smooth="yes"/>
      <point x="375" y="902"/>
      <point x="429" y="899"/>
      <point x="483" y="898" type="curve"/>
      <point x="596" y="839"/>
      <point x="657" y="696"/>
      <point x="657" y="556" type="curve" smooth="yes"/>
      <point x="657" y="385"/>
      <point x="565" y="219"/>
      <point x="360" y="219" type="curve" smooth="yes"/>
      <point x="342" y="219"/>
      <point x="323" y="220"/>
      <point x="304" y="223" type="curve"/>
      <point x="288" y="257"/>
      <point x="280" y="291"/>
      <point x="280" y="322" type="curve" smooth="yes"/>
      <point x="280" y="457"/>
      <point x="414" y="560"/>
      <point x="573" y="583" type="curve"/>
      <point x="557" y="711"/>
      <point x="420" y="810"/>
      <point x="280" y="810" type="curve" smooth="yes"/>
      <point x="226" y="810"/>
      <point x="172" y="796"/>
      <point x="124" y="763" type="curve"/>
      <point x="118" y="744"/>
      <point x="116" y="728"/>
      <point x="116" y="715" type="curve" smooth="yes"/>
      <point x="116" y="601"/>
      <point x="307" y="679"/>
      <point x="307" y="565" type="curve" smooth="yes"/>
      <point x="307" y="557"/>
      <point x="306" y="548"/>
      <point x="304" y="538" type="curve"/>
      <point x="231" y="600"/>
      <point x="72" y="576"/>
      <point x="34" y="673" type="curve"/>
      <point x="31" y="690"/>
      <point x="30" y="706"/>
      <point x="30" y="721" type="curve" smooth="yes"/>
      <point x="30" y="879"/>
      <point x="165" y="902"/>
    </contour>
    <contour>
      <point x="498" y="454" type="curve" smooth="yes"/>
      <point x="497" y="454" type="line" smooth="yes"/>
      <point x="442" y="454"/>
      <point x="391" y="399"/>
      <point x="391" y="358" type="curve" smooth="yes"/>
      <point x="391" y="336"/>
      <point x="404" y="318"/>
      <point x="438" y="313" type="curve"/>
      <point x="449" y="377"/>
      <point x="512" y="389"/>
      <point x="528" y="448" type="curve"/>
      <point x="518" y="452"/>
      <point x="508" y="454"/>
    </contour>
  </outline>
</glyph>
<glyph name="adieresis" format="1">
  <advance width="657"/>
  <unicode hex="00E4"/>
  <outline>
    <contour>
      <point x="172" y="1109" type="curve" smooth="yes"/>
      <point x="224" y="1108"/>
      <point x="247" y="1068"/>
      <point x="247" y="1024" type="curve" smooth="yes"/>
      <point x="247" y="992"/>
      <point x="235" y="958"/>
      <point x="214" y="939" type="curve"/>
      <point x="164" y="967"/>
      <point x="165" y="1047"/>
      <point x="147" y="1106" type="curve"/>
      <point x="156" y="1108"/>
      <point x="164" y="1109"/>
    </contour>
    <contour>
      <point x="447" y="1039" type="curve"/>
      <point x="447" y="1032" type="line" smooth="yes"/>
      <point x="447" y="961"/>
      <point x="386" y="919"/>
      <point x="333" y="919" type="curve" smooth="yes"/>
      <point x="313" y="919"/>
      <point x="293" y="925"/>
      <point x="280" y="939" type="curve"/>
      <point x="303" y="1005"/>
      <point x="369" y="1028"/>
    </contour>
    <contour>
      <point x="308" y="876" type="curve" smooth="yes"/>
      <point x="358" y="876"/>
      <point x="411" y="873"/>
      <point x="462" y="872" type="curve"/>
      <point x="569" y="816"/>
      <point x="627" y="680"/>
      <point x="627" y="547" type="curve" smooth="yes"/>
      <point x="627" y="384"/>
      <point x="539" y="225"/>
      <point x="343" y="225" type="curve" smooth="yes"/>
      <point x="326" y="225"/>
      <point x="308" y="227"/>
      <point x="290" y="229" type="curve"/>
      <point x="275" y="261"/>
      <point x="268" y="293"/>
      <point x="268" y="323" type="curve" smooth="yes"/>
      <point x="268" y="451"/>
      <point x="396" y="550"/>
      <point x="548" y="572" type="curve"/>
      <point x="533" y="694"/>
      <point x="402" y="788"/>
      <point x="268" y="788" type="curve" smooth="yes"/>
      <point x="217" y="788"/>
      <point x="165" y="774"/>
      <point x="119" y="743" type="curve"/>
      <point x="114" y="725"/>
      <point x="111" y="710"/>
      <point x="111" y="697" type="curve" smooth="yes"/>
      <point x="111" y="589"/>
      <point x="293" y="663"/>
      <point x="293" y="555" type="curve" smooth="yes"/>
      <point x="293" y="547"/>
      <point x="292" y="539"/>
      <point x="290" y="529" type="curve"/>
      <point x="221" y="588"/>
      <point x="69" y="566"/>
      <point x="33" y="658" type="curve"/>
      <point x="31" y="674"/>
      <point x="30" y="689"/>
      <point x="30" y="703" type="curve" smooth="yes"/>
      <point x="30" y="853"/>
      <point x="158" y="876"/>
    </contour>
    <contour>
      <point x="475" y="450" type="curve" smooth="yes"/>
      <point x="474" y="450" type="line" smooth="yes"/>
      <point x="422" y="450"/>
      <point x="374" y="398"/>
      <point x="374" y="358" type="curve" smooth="yes"/>
      <point x="374" y="337"/>
      <point x="387" y="320"/>
      <point x="419" y="315" type="curve"/>
      <point x="429" y="376"/>
      <point x="490" y="388"/>
      <point x="505" y="444" type="curve"/>
      <point x="495" y="448"/>
      <point x="485" y="450"/>
    </contour>
  </outline>
</glyph>
<glyph name="ae" format="1">
  <advance width="1105"/>
  <unicode hex="00E6"/>
  <outline>
    <contour>
      <point x="749" y="914" type="curve"/>
      <point x="778" y="887"/>
      <point x="783" y="835"/>
      <point x="783" y="778" type="curve" smooth="yes"/>
      <point x="783" y="747"/>
      <point x="781" y="713"/>
      <point x="781" y="682" type="curve" smooth="yes"/>
      <point x="781" y="672"/>
      <point x="782" y="662"/>
      <point x="782" y="653" type="curve"/>
      <point x="714" y="570"/>
      <point x="554" y="582"/>
      <point x="554" y="432" type="curve" smooth="yes"/>
      <point x="554" y="425" type="line"/>
      <point x="581" y="410"/>
      <point x="608" y="403"/>
      <point x="635" y="403" type="curve" smooth="yes"/>
      <point x="782" y="403"/>
      <point x="928" y="594"/>
      <point x="1042" y="594" type="curve" smooth="yes"/>
      <point x="1054" y="594"/>
      <point x="1065" y="592"/>
      <point x="1076" y="588" type="curve"/>
      <point x="1003" y="302"/>
      <point x="538" y="408"/>
      <point x="456" y="131" type="curve"/>
      <point x="446" y="131" type="line" smooth="yes"/>
      <point x="329" y="131"/>
      <point x="247" y="166"/>
      <point x="162" y="197" type="curve"/>
      <point x="170" y="385"/>
      <point x="321" y="428"/>
      <point x="390" y="555" type="curve"/>
      <point x="357" y="598"/>
      <point x="337" y="654"/>
      <point x="293" y="686" type="curve"/>
      <point x="288" y="686" type="line" smooth="yes"/>
      <point x="148" y="686"/>
      <point x="168" y="527"/>
      <point x="97" y="458" type="curve"/>
      <point x="49" y="492"/>
      <point x="30" y="531"/>
      <point x="30" y="571" type="curve" smooth="yes"/>
      <point x="30" y="690"/>
      <point x="204" y="818"/>
      <point x="293" y="849" type="curve"/>
      <point x="305" y="850"/>
      <point x="316" y="851"/>
      <point x="327" y="851" type="curve" smooth="yes"/>
      <point x="386" y="851"/>
      <point x="424" y="830"/>
      <point x="424" y="770" type="curve" smooth="yes"/>
      <point x="424" y="764"/>
      <point x="424" y="758"/>
      <point x="423" y="751" type="curve"/>
      <point x="524" y="794"/>
      <point x="541" y="921"/>
      <point x="686" y="921" type="curve" smooth="yes"/>
      <point x="705" y="921"/>
      <point x="725" y="919"/>
    </contour>
    <contour>
      <point x="521" y="588" type="curve"/>
      <point x="567" y="656"/>
      <point x="692" y="645"/>
      <point x="692" y="759" type="curve" smooth="yes"/>
      <point x="692" y="775"/>
      <point x="690" y="794"/>
      <point x="684" y="816" type="curve"/>
      <point x="678" y="816" type="line" smooth="yes"/>
      <point x="590" y="816"/>
      <point x="493" y="732"/>
      <point x="493" y="654" type="curve" smooth="yes"/>
      <point x="493" y="631"/>
      <point x="502" y="608"/>
    </contour>
    <contour>
      <point x="293" y="262" type="curve"/>
      <point x="330" y="254"/>
      <point x="349" y="226"/>
      <point x="395" y="226" type="curve" smooth="yes"/>
      <point x="403" y="226"/>
      <point x="412" y="227"/>
      <point x="423" y="229" type="curve"/>
      <point x="422" y="240"/>
      <point x="421" y="251"/>
      <point x="421" y="263" type="curve" smooth="yes"/>
      <point x="421" y="269"/>
      <point x="422" y="276"/>
      <point x="422" y="283" type="curve" smooth="yes"/>
      <point x="422" y="319"/>
      <point x="419" y="353"/>
      <point x="390" y="360" type="curve"/>
      <point x="390" y="357"/>
      <point x="391" y="353"/>
      <point x="391" y="350" type="curve" smooth="yes"/>
      <point x="391" y="288"/>
      <point x="297" y="321"/>
    </contour>
  </outline>
</glyph>
<glyph name="ccedilla" format="1">
  <advance width="437"/>
  <unicode hex="00E7"/>
  <outline>
    <contour>
      <point x="355" y="872" type="curve"/>
      <point x="392" y="867"/>
      <point x="407" y="841"/>
      <point x="407" y="799" type="curve" smooth="yes"/>
      <point x="407" y="791"/>
      <point x="406" y="782"/>
      <point x="405" y="772" type="curve"/>
      <point x="398" y="772"/>
      <point x="390" y="773"/>
      <point x="383" y="773" type="curve" smooth="yes"/>
      <point x="177" y="773"/>
      <point x="100" y="591"/>
      <point x="100" y="423" type="curve" smooth="yes"/>
      <point x="100" y="397"/>
      <point x="102" y="371"/>
      <point x="105" y="347" type="curve"/>
      <point x="113" y="349"/>
      <point x="120" y="350"/>
      <point x="127" y="350" type="curve" smooth="yes"/>
      <point x="162" y="350"/>
      <point x="176" y="329"/>
      <point x="205" y="322" type="curve"/>
      <point x="248" y="387"/>
      <point x="305" y="439"/>
      <point x="405" y="447" type="curve"/>
      <point x="398" y="349"/>
      <point x="262" y="347"/>
      <point x="262" y="274" type="curve" smooth="yes"/>
      <point x="262" y="260"/>
      <point x="268" y="243"/>
      <point x="280" y="222" type="curve"/>
      <point x="130" y="222" type="line"/>
      <point x="135" y="157"/>
      <point x="168" y="121"/>
      <point x="238" y="121" type="curve" smooth="yes"/>
      <point x="243" y="121"/>
      <point x="249" y="122"/>
      <point x="255" y="122" type="curve"/>
      <point x="238" y="88"/>
      <point x="213" y="74"/>
      <point x="188" y="74" type="curve" smooth="yes"/>
      <point x="135" y="74"/>
      <point x="79" y="136"/>
      <point x="79" y="201" type="curve" smooth="yes"/>
      <point x="79" y="225"/>
      <point x="86" y="250"/>
      <point x="105" y="272" type="curve"/>
      <point x="81" y="298"/>
      <point x="56" y="323"/>
      <point x="30" y="347" type="curve"/>
      <point x="36" y="625"/>
      <point x="158" y="786"/>
    </contour>
  </outline>
</glyph>
<glyph name="edieresis" format="1">
  <advance width="604"/>
  <unicode hex="00EB"/>
  <outline>
    <contour>
      <point x="75" y="1071" type="curve" smooth="yes"/>
      <point x="145" y="1070"/>
      <point x="175" y="1015"/>
      <point x="175" y="956" type="curve" smooth="yes"/>
      <point x="175" y="913"/>
      <point x="159" y="868"/>
      <point x="131" y="842" type="curve"/>
      <point x="64" y="880"/>
      <point x="66" y="987"/>
      <point x="41" y="1067" type="curve"/>
      <point x="53" y="1069"/>
      <point x="65" y="1071"/>
    </contour>
    <contour>
      <point x="446" y="977" type="curve"/>
      <point x="446" y="967" type="line" smooth="yes"/>
      <point x="446" y="872"/>
      <point x="364" y="815"/>
      <point x="293" y="815" type="curve" smooth="yes"/>
      <point x="265" y="815"/>
      <point x="239" y="824"/>
      <point x="221" y="842" type="curve"/>
      <point x="252" y="931"/>
      <point x="341" y="962"/>
    </contour>
    <contour>
      <point x="344" y="737" type="curve" smooth="yes"/>
      <point x="370" y="737"/>
      <point x="401" y="733"/>
      <point x="438" y="722" type="curve"/>
      <point x="442" y="699"/>
      <point x="443" y="678"/>
      <point x="443" y="659" type="curve" smooth="yes"/>
      <point x="443" y="512"/>
      <point x="345" y="462"/>
      <point x="257" y="404" type="curve"/>
      <point x="268" y="334"/>
      <point x="308" y="315"/>
      <point x="355" y="315" type="curve" smooth="yes"/>
      <point x="408" y="315"/>
      <point x="472" y="339"/>
      <point x="519" y="339" type="curve" smooth="yes"/>
      <point x="543" y="339"/>
      <point x="562" y="333"/>
      <point x="574" y="314" type="curve"/>
      <point x="520" y="251"/>
      <point x="456" y="225"/>
      <point x="390" y="225" type="curve" smooth="yes"/>
      <point x="226" y="225"/>
      <point x="55" y="388"/>
      <point x="30" y="540" type="curve"/>
      <point x="34" y="540" type="line" smooth="yes"/>
      <point x="203" y="540"/>
      <point x="175" y="737"/>
    </contour>
  </outline>
</glyph>
<glyph name="icircumflex" format="1">
  <advance width="483"/>
  <unicode hex="00EE"/>
  <outline>
    <contour>
      <point x="234" y="862" type="curve"/>
      <point x="347" y="862" type="line"/>
      <point x="380" y="851"/>
      <point x="386" y="831"/>
      <point x="386" y="809" type="curve" smooth="yes"/>
      <point x="386" y="796"/>
      <point x="384" y="783"/>
      <point x="384" y="770" type="curve"/>
      <point x="381" y="766"/>
      <point x="380" y="762"/>
      <point x="380" y="757" type="curve" smooth="yes"/>
      <point x="380" y="744"/>
      <point x="389" y="727"/>
      <point x="389" y="714" type="curve" smooth="yes"/>
      <point x="389" y="700"/>
      <point x="379" y="690"/>
      <point x="339" y="690" type="curve" smooth="yes"/>
      <point x="330" y="690"/>
      <point x="320" y="690"/>
      <point x="309" y="691" type="curve"/>
      <point x="309" y="823" type="line"/>
      <point x="161" y="796"/>
      <point x="137" y="725"/>
      <point x="47" y="678" type="curve"/>
      <point x="35" y="687"/>
      <point x="30" y="696"/>
      <point x="30" y="705" type="curve" smooth="yes"/>
      <point x="30" y="756"/>
      <point x="198" y="811"/>
    </contour>
    <contour>
      <point x="209" y="674" type="curve"/>
      <point x="262" y="662"/>
      <point x="268" y="602"/>
      <point x="268" y="536" type="curve" smooth="yes"/>
      <point x="268" y="482" type="line"/>
      <point x="268" y="482"/>
      <point x="268" y="446"/>
      <point x="270" y="430" type="curve" smooth="yes"/>
      <point x="280" y="359"/>
      <point x="381" y="379"/>
      <point x="453" y="369" type="curve"/>
      <point x="440" y="280"/>
      <point x="376" y="243"/>
      <point x="274" y="243" type="curve" smooth="yes"/>
      <point x="254" y="243"/>
      <point x="232" y="244"/>
      <point x="209" y="247" type="curve"/>
      <point x="166" y="288"/>
      <point x="144" y="374"/>
      <point x="144" y="460" type="curve" smooth="yes"/>
      <point x="144" y="547"/>
      <point x="166" y="634"/>
    </contour>
  </outline>
</glyph>
<glyph name="idieresis" format="1">
  <advance width="304"/>
  <unicode hex="00EF"/>
  <outline>
    <contour>
      <point x="50" y="878" type="curve" smooth="yes"/>
      <point x="93" y="878"/>
      <point x="111" y="845"/>
      <point x="111" y="810" type="curve" smooth="yes"/>
      <point x="111" y="784"/>
      <point x="101" y="757"/>
      <point x="84" y="741" type="curve"/>
      <point x="44" y="764"/>
      <point x="45" y="828"/>
      <point x="30" y="876" type="curve"/>
      <point x="37" y="877"/>
      <point x="44" y="878"/>
    </contour>
    <contour>
      <point x="274" y="822" type="curve"/>
      <point x="274" y="816" type="line" smooth="yes"/>
      <point x="274" y="759"/>
      <point x="224" y="724"/>
      <point x="181" y="724" type="curve" smooth="yes"/>
      <point x="164" y="724"/>
      <point x="149" y="730"/>
      <point x="138" y="741" type="curve"/>
      <point x="157" y="794"/>
      <point x="211" y="813"/>
    </contour>
    <contour>
      <point x="111" y="605" type="curve"/>
      <point x="129" y="584"/>
      <point x="162" y="476"/>
      <point x="165" y="416" type="curve" smooth="yes"/>
      <point x="166" y="389"/>
      <point x="173" y="348"/>
      <point x="173" y="311" type="curve" smooth="yes"/>
      <point x="173" y="265"/>
      <point x="162" y="226"/>
      <point x="118" y="226" type="curve" smooth="yes"/>
      <point x="111" y="226" type="line"/>
      <point x="121" y="243"/>
      <point x="125" y="262"/>
      <point x="125" y="282" type="curve" smooth="yes"/>
      <point x="125" y="350"/>
      <point x="82" y="432"/>
      <point x="82" y="510" type="curve" smooth="yes"/>
      <point x="82" y="543"/>
      <point x="89" y="575"/>
    </contour>
  </outline>
</glyph>
<glyph name="ocircumflex" format="1">
  <advance width="543"/>
  <unicode hex="00F4"/>
  <outline>
    <contour>
      <point x="262" y="1051" type="line"/>
      <point x="269" y="904"/>
      <point x="408" y="794"/>
      <point x="408" y="665" type="curve" smooth="yes"/>
      <point x="408" y="638"/>
      <point x="402" y="611"/>
      <point x="388" y="582" type="curve"/>
      <point x="434" y="503"/>
      <point x="498" y="442"/>
      <point x="513" y="331" type="curve"/>
      <point x="478" y="257"/>
      <point x="410" y="224"/>
      <point x="340" y="224" type="curve" smooth="yes"/>
      <point x="263" y="224"/>
      <point x="182" y="264"/>
      <point x="137" y="331" type="curve"/>
      <point x="136" y="345"/>
      <point x="135" y="358"/>
      <point x="135" y="370" type="curve" smooth="yes"/>
      <point x="135" y="525"/>
      <point x="237" y="578"/>
      <point x="356" y="613" type="curve"/>
      <point x="326" y="749"/>
      <point x="248" y="838"/>
      <point x="200" y="957" type="curve"/>
      <point x="148" y="894"/>
      <point x="87" y="841"/>
      <point x="75" y="738" type="curve"/>
      <point x="43" y="752"/>
      <point x="30" y="773"/>
      <point x="30" y="798" type="curve" smooth="yes"/>
      <point x="30" y="873"/>
      <point x="142" y="984"/>
      <point x="168" y="1051" type="curve"/>
    </contour>
    <contour>
      <point x="200" y="394" type="curve"/>
      <point x="220" y="327"/>
      <point x="276" y="296"/>
      <point x="362" y="296" type="curve" smooth="yes"/>
      <point x="380" y="296"/>
      <point x="399" y="297"/>
      <point x="419" y="300" type="curve"/>
      <point x="424" y="320"/>
      <point x="427" y="339"/>
      <point x="427" y="357" type="curve" smooth="yes"/>
      <point x="427" y="451"/>
      <point x="359" y="512"/>
      <point x="297" y="512" type="curve" smooth="yes"/>
      <point x="250" y="512"/>
      <point x="206" y="476"/>
    </contour>
  </outline>
</glyph>
<glyph name="minuscule u tréma" format="1">
  <advance width="664"/>
  <unicode hex="00FC"/>
  <outline>
    <contour>
      <point x="343" y="1101" type="curve"/>
      <point x="444" y="1094"/>
      <point x="460" y="977"/>
      <point x="460" y="887" type="curve" smooth="yes"/>
      <point x="460" y="856"/>
      <point x="458" y="829"/>
      <point x="457" y="810" type="curve"/>
      <point x="451" y="810" type="line" smooth="yes"/>
      <point x="340" y="810"/>
      <point x="370" y="991"/>
    </contour>
    <contour>
      <point x="85" y="1029" type="line"/>
      <point x="198" y="1043" type="line"/>
      <point x="192" y="969"/>
      <point x="205" y="881"/>
      <point x="105" y="879" type="curve"/>
    </contour>
    <contour>
      <point x="88" y="826" type="curve"/>
      <point x="129" y="824"/>
      <point x="141" y="790"/>
      <point x="141" y="738" type="curve" smooth="yes"/>
      <point x="141" y="674"/>
      <point x="123" y="583"/>
      <point x="123" y="497" type="curve" smooth="yes"/>
      <point x="123" y="417"/>
      <point x="138" y="342"/>
      <point x="197" y="294" type="curve"/>
      <point x="302" y="347"/>
      <point x="350" y="443"/>
      <point x="350" y="576" type="curve" smooth="yes"/>
      <point x="350" y="592"/>
      <point x="349" y="609"/>
      <point x="348" y="626" type="curve"/>
      <point x="534" y="614"/>
      <point x="532" y="357"/>
      <point x="634" y="235" type="curve"/>
      <point x="623" y="233"/>
      <point x="613" y="232"/>
      <point x="604" y="232" type="curve" smooth="yes"/>
      <point x="510" y="232"/>
      <point x="486" y="323"/>
      <point x="455" y="406" type="curve"/>
      <point x="320" y="396"/>
      <point x="401" y="223"/>
      <point x="253" y="223" type="curve" smooth="yes"/>
      <point x="245" y="223" type="line"/>
      <point x="78" y="226"/>
      <point x="30" y="353"/>
      <point x="30" y="498" type="curve" smooth="yes"/>
      <point x="30" y="614"/>
      <point x="61" y="741"/>
    </contour>
  </outline>
</glyph>
<glyph name="A" format="1">
  <advance width="821"/>
  <unicode hex="0102"/>
  <outline>
    <contour>
      <point x="325" y="1117" type="curve"/>
      <point x="511" y="1066"/>
      <point x="472" y="792"/>
      <point x="532" y="615" type="curve"/>
      <point x="591" y="503"/>
      <point x="791" y="458"/>
      <point x="791" y="319" type="curve" smooth="yes"/>
      <point x="791" y="293"/>
      <point x="784" y="264"/>
      <point x="768" y="231" type="curve"/>
      <point x="753" y="229"/>
      <point x="739" y="228"/>
      <point x="725" y="228" type="curve" smooth="yes"/>
      <point x="533" y="228"/>
      <point x="526" y="416"/>
      <point x="444" y="527" type="curve"/>
      <point x="433" y="529"/>
      <point x="424" y="529"/>
      <point x="415" y="529" type="curve" smooth="yes"/>
      <point x="334" y="529"/>
      <point x="317" y="466"/>
      <point x="236" y="466" type="curve" smooth="yes"/>
      <point x="227" y="466"/>
      <point x="218" y="466"/>
      <point x="207" y="468" type="curve"/>
      <point x="211" y="571"/>
      <point x="302" y="587"/>
      <point x="408" y="587" type="curve" smooth="yes"/>
      <point x="420" y="587"/>
      <point x="432" y="586"/>
      <point x="444" y="586" type="curve"/>
      <point x="441" y="740"/>
      <point x="413" y="870"/>
      <point x="355" y="970" type="curve"/>
      <point x="142" y="828"/>
      <point x="206" y="409"/>
      <point x="30" y="231" type="curve"/>
      <point x="30" y="235" type="line" smooth="yes"/>
      <point x="30" y="628"/>
      <point x="177" y="873"/>
    </contour>
    <contour>
      <point x="709" y="320" type="curve"/>
      <point x="705" y="395"/>
      <point x="666" y="434"/>
      <point x="591" y="438" type="curve"/>
      <point x="595" y="363"/>
      <point x="634" y="324"/>
    </contour>
    <contour>
      <point x="384" y="1442" type="curve"/>
      <point x="392" y="1442" type="line" smooth="yes"/>
      <point x="498" y="1442"/>
      <point x="544" y="1383"/>
      <point x="562" y="1295" type="curve"/>
      <point x="548" y="1179"/>
      <point x="450" y="1145"/>
      <point x="319" y="1145" type="curve" smooth="yes"/>
      <point x="302" y="1145"/>
      <point x="284" y="1146"/>
      <point x="266" y="1147" type="curve"/>
      <point x="247" y="1188"/>
      <point x="208" y="1239"/>
      <point x="208" y="1289" type="curve" smooth="yes"/>
      <point x="208" y="1311"/>
      <point x="216" y="1333"/>
      <point x="237" y="1354" type="curve"/>
      <point x="274" y="1313"/>
      <point x="323" y="1229"/>
      <point x="392" y="1229" type="curve" smooth="yes"/>
      <point x="416" y="1229"/>
      <point x="443" y="1239"/>
      <point x="473" y="1265" type="curve"/>
      <point x="474" y="1272"/>
      <point x="474" y="1278"/>
      <point x="474" y="1283" type="curve" smooth="yes"/>
      <point x="474" y="1361"/>
      <point x="383" y="1346"/>
      <point x="383" y="1424" type="curve" smooth="yes"/>
      <point x="383" y="1429"/>
      <point x="383" y="1435"/>
    </contour>
  </outline>
</glyph>
<glyph name="aogonek" format="1">
  <advance width="879"/>
  <unicode hex="0105"/>
  <outline>
    <contour>
      <point x="445" y="785" type="line"/>
      <point x="501" y="693"/>
      <point x="506" y="548"/>
      <point x="548" y="442" type="curve"/>
      <point x="557" y="442" type="line" smooth="yes"/>
      <point x="668" y="442"/>
      <point x="724" y="496"/>
      <point x="818" y="515" type="curve"/>
      <point x="821" y="494"/>
      <point x="846" y="495"/>
      <point x="849" y="474" type="curve"/>
      <point x="797" y="322"/>
      <point x="551" y="364"/>
      <point x="476" y="235" type="curve"/>
      <point x="511" y="173"/>
      <point x="619" y="185"/>
      <point x="673" y="142" type="curve"/>
      <point x="673" y="139" type="line" smooth="yes"/>
      <point x="673" y="95"/>
      <point x="650" y="73"/>
      <point x="631" y="48" type="curve"/>
      <point x="615" y="48" type="line" smooth="yes"/>
      <point x="485" y="48"/>
      <point x="413" y="107"/>
      <point x="351" y="173" type="curve"/>
      <point x="358" y="266"/>
      <point x="412" y="313"/>
      <point x="445" y="380" type="curve"/>
      <point x="445" y="383" type="line" smooth="yes"/>
      <point x="445" y="403"/>
      <point x="415" y="392"/>
      <point x="414" y="411" type="curve"/>
      <point x="347" y="361"/>
      <point x="259" y="318"/>
      <point x="170" y="318" type="curve" smooth="yes"/>
      <point x="123" y="318"/>
      <point x="75" y="330"/>
      <point x="30" y="360" type="curve"/>
      <point x="69" y="600"/>
      <point x="163" y="785"/>
      <point x="441" y="785" type="curve" smooth="yes"/>
    </contour>
    <contour>
      <point x="134" y="401" type="curve"/>
      <point x="267" y="412"/>
      <point x="363" y="505"/>
      <point x="363" y="627" type="curve" smooth="yes"/>
      <point x="363" y="635"/>
      <point x="363" y="642"/>
      <point x="362" y="650" type="curve"/>
      <point x="354" y="650" type="line" smooth="yes"/>
      <point x="234" y="650"/>
      <point x="163" y="521"/>
    </contour>
  </outline>
</glyph>
<glyph name="C" format="1">
  <advance width="1043"/>
  <unicode hex="010C"/>
  <outline>
    <contour>
      <point x="994" y="1097" type="curve"/>
      <point x="1007" y="1073"/>
      <point x="1013" y="1048"/>
      <point x="1013" y="1022" type="curve" smooth="yes"/>
      <point x="1013" y="923"/>
      <point x="919" y="821"/>
      <point x="728" y="821" type="curve" smooth="yes"/>
      <point x="713" y="821"/>
      <point x="698" y="822"/>
      <point x="683" y="823" type="curve"/>
      <point x="683" y="829" type="line" smooth="yes"/>
      <point x="683" y="922"/>
      <point x="864" y="891"/>
      <point x="864" y="984" type="curve" smooth="yes"/>
      <point x="864" y="990"/>
      <point x="863" y="998"/>
      <point x="861" y="1006" type="curve"/>
      <point x="824" y="1013"/>
      <point x="787" y="1016"/>
      <point x="751" y="1016" type="curve" smooth="yes"/>
      <point x="421" y="1016"/>
      <point x="170" y="735"/>
      <point x="170" y="480" type="curve" smooth="yes"/>
      <point x="170" y="407"/>
      <point x="191" y="336"/>
      <point x="237" y="274" type="curve"/>
      <point x="247" y="274" type="line" smooth="yes"/>
      <point x="615" y="274"/>
      <point x="817" y="387"/>
      <point x="950" y="548" type="curve"/>
      <point x="957" y="531"/>
      <point x="960" y="514"/>
      <point x="960" y="497" type="curve" smooth="yes"/>
      <point x="960" y="326"/>
      <point x="616" y="187"/>
      <point x="359" y="187" type="curve" smooth="yes"/>
      <point x="296" y="187"/>
      <point x="239" y="195"/>
      <point x="193" y="213" type="curve" smooth="yes"/>
      <point x="80" y="256"/>
      <point x="30" y="349"/>
      <point x="30" y="459" type="curve" smooth="yes"/>
      <point x="30" y="737"/>
      <point x="349" y="1129"/>
      <point x="780" y="1129" type="curve" smooth="yes"/>
      <point x="849" y="1129"/>
      <point x="920" y="1119"/>
    </contour>
    <contour>
      <point x="861" y="1524" type="line"/>
      <point x="706" y="1396"/>
      <point x="660" y="1194"/>
      <point x="415" y="1128" type="curve"/>
      <point x="347" y="1224"/>
      <point x="267" y="1310"/>
      <point x="237" y="1432" type="curve"/>
      <point x="246" y="1432" type="line" smooth="yes"/>
      <point x="406" y="1432"/>
      <point x="383" y="1307"/>
      <point x="460" y="1250" type="curve"/>
      <point x="601" y="1332"/>
      <point x="582" y="1524"/>
      <point x="843" y="1524" type="curve" smooth="yes"/>
    </contour>
  </outline>
</glyph>
<glyph name="d" format="1">
  <advance width="636"/>
  <unicode hex="010F"/>
  <outline>
    <contour>
      <point x="570" y="1307" type="curve"/>
      <point x="589" y="1257"/>
      <point x="606" y="1157"/>
      <point x="606" y="1061" type="curve" smooth="yes"/>
      <point x="606" y="948"/>
      <point x="583" y="840"/>
      <point x="513" y="823" type="curve"/>
      <point x="513" y="1003"/>
      <point x="532" y="1165"/>
    </contour>
    <contour>
      <point x="314" y="1335" type="curve"/>
      <point x="473" y="1134"/>
      <point x="390" y="691"/>
      <point x="485" y="426" type="curve"/>
      <point x="512" y="442"/>
      <point x="514" y="483"/>
      <point x="557" y="483" type="curve" smooth="yes"/>
      <point x="561" y="483"/>
      <point x="565" y="483"/>
      <point x="570" y="482" type="curve"/>
      <point x="545" y="412"/>
      <point x="544" y="319"/>
      <point x="456" y="312" type="curve"/>
      <point x="408" y="368"/>
      <point x="424" y="487"/>
      <point x="371" y="539" type="curve"/>
      <point x="228" y="459"/>
      <point x="266" y="198"/>
      <point x="44" y="198" type="curve" smooth="yes"/>
      <point x="30" y="198" type="line"/>
      <point x="30" y="217" type="line" smooth="yes"/>
      <point x="30" y="622"/>
      <point x="334" y="806"/>
      <point x="334" y="1170" type="curve" smooth="yes"/>
      <point x="334" y="1221"/>
      <point x="328" y="1276"/>
    </contour>
    <contour>
      <point x="115" y="284" type="curve"/>
      <point x="179" y="365"/>
      <point x="278" y="506"/>
      <point x="278" y="640" type="curve" smooth="yes"/>
      <point x="278" y="674"/>
      <point x="272" y="707"/>
      <point x="258" y="738" type="curve"/>
      <point x="201" y="643"/>
      <point x="103" y="486"/>
      <point x="103" y="356" type="curve" smooth="yes"/>
      <point x="103" y="331"/>
      <point x="107" y="306"/>
    </contour>
  </outline>
</glyph>
<glyph name="e" format="1">
  <advance width="634"/>
  <unicode hex="011B"/>
  <outline>
    <contour>
      <point x="443" y="845" type="line"/>
      <point x="458" y="808"/>
      <point x="465" y="773"/>
      <point x="465" y="739" type="curve" smooth="yes"/>
      <point x="465" y="569"/>
      <point x="289" y="443"/>
      <point x="119" y="400" type="curve"/>
      <point x="163" y="319"/>
      <point x="235" y="292"/>
      <point x="315" y="292" type="curve" smooth="yes"/>
      <point x="410" y="292"/>
      <point x="517" y="329"/>
      <point x="605" y="360" type="curve"/>
      <point x="505" y="232"/>
      <point x="406" y="182"/>
      <point x="320" y="182" type="curve" smooth="yes"/>
      <point x="159" y="182"/>
      <point x="42" y="356"/>
      <point x="42" y="526" type="curve" smooth="yes"/>
      <point x="42" y="687"/>
      <point x="148" y="845"/>
      <point x="424" y="845" type="curve" smooth="yes"/>
    </contour>
    <contour>
      <point x="119" y="522" type="curve"/>
      <point x="260" y="529"/>
      <point x="323" y="615"/>
      <point x="362" y="724" type="curve"/>
      <point x="347" y="727"/>
      <point x="333" y="728"/>
      <point x="320" y="728" type="curve" smooth="yes"/>
      <point x="184" y="728"/>
      <point x="192" y="585"/>
    </contour>
    <contour>
      <point x="362" y="1331" type="curve"/>
      <point x="483" y="1331" type="line"/>
      <point x="479" y="1086"/>
      <point x="322" y="945"/>
      <point x="194" y="945" type="curve" smooth="yes"/>
      <point x="105" y="945"/>
      <point x="30" y="1013"/>
      <point x="30" y="1160" type="curve" smooth="yes"/>
      <point x="30" y="1187"/>
      <point x="33" y="1217"/>
      <point x="38" y="1250" type="curve"/>
      <point x="128" y="1218"/>
      <point x="139" y="1109"/>
      <point x="200" y="1048" type="curve"/>
      <point x="298" y="1099"/>
      <point x="331" y="1213"/>
    </contour>
  </outline>
</glyph>
<glyph name="L barré majuscule" format="1">
  <advance width="766"/>
  <unicode hex="0141"/>
  <outline>
    <contour>
      <point x="273" y="657" type="line"/>
      <point x="294" y="660"/>
      <point x="318" y="675"/>
      <point x="340" y="675" type="curve" smooth="yes"/>
      <point x="350" y="675"/>
      <point x="360" y="672"/>
      <point x="368" y="663" type="curve"/>
      <point x="361" y="607"/>
      <point x="304" y="600"/>
      <point x="273" y="568" type="curve"/>
      <point x="270" y="526"/>
      <point x="266" y="472"/>
      <point x="266" y="421" type="curve" smooth="yes"/>
      <point x="266" y="378"/>
      <point x="269" y="338"/>
      <point x="279" y="307" type="curve"/>
      <point x="304" y="302"/>
      <point x="340" y="289"/>
      <point x="371" y="289" type="curve" smooth="yes"/>
      <point x="374" y="289" type="line"/>
      <point x="447" y="292"/>
      <point x="550" y="342"/>
      <point x="632" y="342" type="curve" smooth="yes"/>
      <point x="674" y="342"/>
      <point x="711" y="329"/>
      <point x="736" y="289" type="curve"/>
      <point x="725" y="268"/>
      <point x="703" y="264"/>
      <point x="681" y="264" type="curve" smooth="yes"/>
      <point x="669" y="264"/>
      <point x="657" y="265"/>
      <point x="646" y="265" type="curve" smooth="yes"/>
      <point x="635" y="265" type="line"/>
      <point x="524" y="254"/>
      <point x="403" y="223"/>
      <point x="275" y="223" type="curve" smooth="yes"/>
      <point x="263" y="223"/>
      <point x="250" y="223"/>
      <point x="238" y="224" type="curve"/>
      <point x="200" y="247"/>
      <point x="191" y="296"/>
      <point x="191" y="351" type="curve" smooth="yes"/>
      <point x="191" y="400"/>
      <point x="198" y="454"/>
      <point x="198" y="500" type="curve" smooth="yes"/>
      <point x="198" y="514"/>
      <point x="198" y="526"/>
      <point x="196" y="538" type="curve"/>
      <point x="150" y="527"/>
      <point x="113" y="454"/>
      <point x="71" y="454" type="curve" smooth="yes"/>
      <point x="58" y="454"/>
      <point x="44" y="461"/>
      <point x="30" y="479" type="curve"/>
      <point x="55" y="539"/>
      <point x="121" y="559"/>
      <point x="167" y="598" type="curve"/>
      <point x="223" y="657"/>
      <point x="184" y="810"/>
      <point x="232" y="877" type="curve"/>
      <point x="238" y="877" type="line" smooth="yes"/>
      <point x="258" y="877"/>
      <point x="257" y="858"/>
      <point x="273" y="853" type="curve"/>
    </contour>
  </outline>
</glyph>
<glyph name="Z" format="1">
  <advance width="959"/>
  <unicode hex="017B"/>
  <outline>
    <contour>
      <point x="457" y="1033" type="curve" smooth="yes"/>
      <point x="469" y="1033" type="line"/>
      <point x="491" y="1015"/>
      <point x="505" y="994"/>
      <point x="505" y="963" type="curve" smooth="yes"/>
      <point x="505" y="955"/>
      <point x="504" y="945"/>
      <point x="502" y="935" type="curve"/>
      <point x="480" y="921"/>
      <point x="434" y="915"/>
      <point x="388" y="915" type="curve" smooth="yes"/>
      <point x="342" y="915"/>
      <point x="296" y="921"/>
      <point x="274" y="935" type="curve"/>
      <point x="294" y="993"/>
      <point x="343" y="1033"/>
    </contour>
    <contour>
      <point x="294" y="343" type="line"/>
      <point x="339" y="316"/>
      <point x="388" y="307"/>
      <point x="440" y="307" type="curve" smooth="yes"/>
      <point x="568" y="307"/>
      <point x="710" y="365"/>
      <point x="826" y="365" type="curve" smooth="yes"/>
      <point x="864" y="365"/>
      <point x="898" y="359"/>
      <point x="929" y="343" type="curve"/>
      <point x="919" y="291"/>
      <point x="881" y="281"/>
      <point x="837" y="281" type="curve" smooth="yes"/>
      <point x="808" y="281"/>
      <point x="776" y="285"/>
      <point x="747" y="285" type="curve" smooth="yes"/>
      <point x="736" y="285"/>
      <point x="726" y="285"/>
      <point x="717" y="283" type="curve" smooth="yes"/>
      <point x="610" y="264"/>
      <point x="487" y="223"/>
      <point x="386" y="223" type="curve" smooth="yes"/>
      <point x="325" y="223"/>
      <point x="271" y="238"/>
      <point x="234" y="283" type="curve"/>
      <point x="234" y="286" type="line" smooth="yes"/>
      <point x="234" y="430"/>
      <point x="391" y="460"/>
      <point x="475" y="525" type="curve" smooth="yes"/>
      <point x="562" y="592"/>
      <point x="663" y="636"/>
      <point x="717" y="737" type="curve"/>
      <point x="683" y="789"/>
      <point x="632" y="805"/>
      <point x="575" y="805" type="curve" smooth="yes"/>
      <point x="502" y="805"/>
      <point x="420" y="779"/>
      <point x="354" y="767" type="curve" smooth="yes"/>
      <point x="234" y="746"/>
      <point x="132" y="677"/>
      <point x="30" y="676" type="curve"/>
      <point x="37" y="701"/>
      <point x="45" y="727"/>
      <point x="53" y="752" type="curve"/>
      <point x="232" y="768"/>
      <point x="421" y="878"/>
      <point x="596" y="878" type="curve" smooth="yes"/>
      <point x="659" y="878"/>
      <point x="720" y="864"/>
      <point x="778" y="827" type="curve"/>
      <point x="779" y="817"/>
      <point x="779" y="808"/>
      <point x="779" y="799" type="curve" smooth="yes"/>
      <point x="779" y="581"/>
      <point x="589" y="533"/>
      <point x="445" y="434" type="curve" smooth="yes"/>
      <point x="401" y="403"/>
      <point x="359" y="343"/>
      <point x="301" y="343" type="curve" smooth="yes"/>
    </contour>
  </outline>
</glyph>
<glyph name="z" format="1">
  <advance width="519"/>
  <unicode hex="017C"/>
  <outline>
    <contour>
      <point x="279" y="969" type="curve" smooth="yes"/>
      <point x="286" y="969" type="line"/>
      <point x="299" y="954"/>
      <point x="308" y="936"/>
      <point x="308" y="911" type="curve" smooth="yes"/>
      <point x="308" y="904"/>
      <point x="307" y="896"/>
      <point x="306" y="888" type="curve"/>
      <point x="292" y="876"/>
      <point x="264" y="871"/>
      <point x="236" y="871" type="curve" smooth="yes"/>
      <point x="208" y="871"/>
      <point x="180" y="876"/>
      <point x="166" y="888" type="curve"/>
      <point x="178" y="936"/>
      <point x="208" y="969"/>
    </contour>
    <contour>
      <point x="236" y="786" type="curve"/>
      <point x="242" y="786" type="line"/>
      <point x="322" y="783"/>
      <point x="359" y="726"/>
      <point x="396" y="706" type="curve"/>
      <point x="388" y="660"/>
      <point x="337" y="670"/>
      <point x="305" y="655" type="curve" smooth="yes"/>
      <point x="256" y="632"/>
      <point x="221" y="585"/>
      <point x="191" y="547" type="curve"/>
      <point x="196" y="547" type="line" smooth="yes"/>
      <point x="245" y="547"/>
      <point x="300" y="578"/>
      <point x="354" y="578" type="curve" smooth="yes"/>
      <point x="376" y="578"/>
      <point x="398" y="573"/>
      <point x="419" y="558" type="curve"/>
      <point x="451" y="521"/>
      <point x="489" y="488"/>
      <point x="489" y="419" type="curve" smooth="yes"/>
      <point x="489" y="409"/>
      <point x="489" y="399"/>
      <point x="487" y="388" type="curve" smooth="yes"/>
      <point x="468" y="254"/>
      <point x="344" y="109"/>
      <point x="197" y="109" type="curve" smooth="yes"/>
      <point x="173" y="109"/>
      <point x="148" y="113"/>
      <point x="123" y="121" type="curve" smooth="yes"/>
      <point x="89" y="133"/>
      <point x="30" y="176"/>
      <point x="30" y="226" type="curve" smooth="yes"/>
      <point x="30" y="236"/>
      <point x="33" y="247"/>
      <point x="38" y="257" type="curve"/>
      <point x="102" y="224"/>
      <point x="153" y="180"/>
      <point x="216" y="180" type="curve" smooth="yes"/>
      <point x="235" y="180"/>
      <point x="255" y="184"/>
      <point x="277" y="194" type="curve" smooth="yes"/>
      <point x="339" y="221"/>
      <point x="411" y="312"/>
      <point x="411" y="397" type="curve" smooth="yes"/>
      <point x="411" y="433"/>
      <point x="398" y="467"/>
      <point x="367" y="496" type="curve"/>
      <point x="352" y="496" type="line" smooth="yes"/>
      <point x="292" y="496"/>
      <point x="231" y="477"/>
      <point x="180" y="477" type="curve" smooth="yes"/>
      <point x="146" y="477"/>
      <point x="117" y="485"/>
      <point x="95" y="513" type="curve"/>
      <point x="113" y="578"/>
      <point x="158" y="616"/>
      <point x="197" y="660" type="curve"/>
      <point x="181" y="665"/>
      <point x="162" y="666"/>
      <point x="144" y="666" type="curve" smooth="yes"/>
      <point x="126" y="666" type="line" smooth="yes"/>
      <point x="93" y="666"/>
      <point x="61" y="668"/>
      <point x="61" y="701" type="curve" smooth="yes"/>
      <point x="61" y="734"/>
      <point x="169" y="785"/>
    </contour>
  </outline>
</glyph>
<glyph name="z diacrité" format="1">
  <advance width="519"/>
  <unicode hex="017E"/>
  <outline>
    <contour>
      <point x="316" y="1036" type="curve" smooth="yes"/>
      <point x="335" y="1036"/>
      <point x="356" y="1024"/>
      <point x="367" y="996" type="curve"/>
      <point x="361" y="960"/>
      <point x="339" y="941"/>
      <point x="333" y="905" type="curve"/>
      <point x="306" y="892"/>
      <point x="270" y="888"/>
      <point x="242" y="876" type="curve"/>
      <point x="207" y="891"/>
      <point x="184" y="917"/>
      <point x="157" y="939" type="curve"/>
      <point x="157" y="949" type="line" smooth="yes"/>
      <point x="157" y="982"/>
      <point x="167" y="1004"/>
      <point x="197" y="1007" type="curve"/>
      <point x="219" y="997"/>
      <point x="223" y="970"/>
      <point x="225" y="939" type="curve"/>
      <point x="234" y="937"/>
      <point x="242" y="937"/>
      <point x="249" y="937" type="curve" smooth="yes"/>
      <point x="266" y="937"/>
      <point x="279" y="941"/>
      <point x="294" y="950" type="curve"/>
      <point x="282" y="967"/>
      <point x="277" y="982"/>
      <point x="277" y="995" type="curve" smooth="yes"/>
      <point x="277" y="1020"/>
      <point x="295" y="1035"/>
    </contour>
    <contour>
      <point x="236" y="786" type="curve"/>
      <point x="242" y="786" type="line"/>
      <point x="322" y="783"/>
      <point x="359" y="726"/>
      <point x="396" y="706" type="curve"/>
      <point x="388" y="660"/>
      <point x="337" y="670"/>
      <point x="305" y="655" type="curve" smooth="yes"/>
      <point x="256" y="632"/>
      <point x="221" y="585"/>
      <point x="191" y="547" type="curve"/>
      <point x="196" y="547" type="line" smooth="yes"/>
      <point x="245" y="547"/>
      <point x="300" y="578"/>
      <point x="354" y="578" type="curve" smooth="yes"/>
      <point x="376" y="578"/>
      <point x="398" y="573"/>
      <point x="419" y="558" type="curve"/>
      <point x="451" y="521"/>
      <point x="489" y="488"/>
      <point x="489" y="419" type="curve" smooth="yes"/>
      <point x="489" y="409"/>
      <point x="489" y="399"/>
      <point x="487" y="388" type="curve" smooth="yes"/>
      <point x="468" y="254"/>
      <point x="344" y="109"/>
      <point x="197" y="109" type="curve" smooth="yes"/>
      <point x="173" y="109"/>
      <point x="148" y="113"/>
      <point x="123" y="121" type="curve" smooth="yes"/>
      <point x="89" y="133"/>
      <point x="30" y="176"/>
      <point x="30" y="226" type="curve" smooth="yes"/>
      <point x="30" y="236"/>
      <point x="33" y="247"/>
      <point x="38" y="257" type="curve"/>
      <point x="102" y="224"/>
      <point x="153" y="180"/>
      <point x="216" y="180" type="curve" smooth="yes"/>
      <point x="235" y="180"/>
      <point x="255" y="184"/>
      <point x="277" y="194" type="curve" smooth="yes"/>
      <point x="339" y="221"/>
      <point x="411" y="312"/>
      <point x="411" y="397" type="curve" smooth="yes"/>
      <point x="411" y="433"/>
      <point x="398" y="467"/>
      <point x="367" y="496" type="curve"/>
      <point x="352" y="496" type="line" smooth="yes"/>
      <point x="292" y="496"/>
      <point x="231" y="477"/>
      <point x="180" y="477" type="curve" smooth="yes"/>
      <point x="146" y="477"/>
      <point x="117" y="485"/>
      <point x="95" y="513" type="curve"/>
      <point x="113" y="578"/>
      <point x="158" y="616"/>
      <point x="197" y="660" type="curve"/>
      <point x="181" y="665"/>
      <point x="162" y="666"/>
      <point x="144" y="666" type="curve" smooth="yes"/>
      <point x="126" y="666" type="line" smooth="yes"/>
      <point x="93" y="666"/>
      <point x="61" y="668"/>
      <point x="61" y="701" type="curve" smooth="yes"/>
      <point x="61" y="734"/>
      <point x="169" y="785"/>
    </contour>
  </outline>
</glyph>
<glyph name="beta" format="1">
  <advance width="726"/>
  <unicode hex="03B2"/>
  <outline>
    <contour>
      <point x="467" y="924" type="curve"/>
      <point x="466" y="840"/>
      <point x="469" y="752"/>
      <point x="385" y="752" type="curve" smooth="yes"/>
      <point x="381" y="752" type="line"/>
      <point x="475" y="645"/>
      <point x="678" y="639"/>
      <point x="695" y="467" type="curve" smooth="yes"/>
      <point x="696" y="460"/>
      <point x="696" y="454"/>
      <point x="696" y="447" type="curve" smooth="yes"/>
      <point x="696" y="328"/>
      <point x="595" y="202"/>
      <point x="481" y="202" type="curve" smooth="yes"/>
      <point x="429" y="202"/>
      <point x="373" y="229"/>
      <point x="324" y="296" type="curve"/>
      <point x="359" y="291"/>
      <point x="390" y="289"/>
      <point x="417" y="289" type="curve" smooth="yes"/>
      <point x="536" y="289"/>
      <point x="583" y="335"/>
      <point x="583" y="399" type="curve" smooth="yes"/>
      <point x="583" y="527"/>
      <point x="396" y="724"/>
      <point x="239" y="752" type="curve"/>
      <point x="246" y="831"/>
      <point x="344" y="817"/>
      <point x="381" y="866" type="curve"/>
      <point x="383" y="877"/>
      <point x="383" y="886"/>
      <point x="383" y="895" type="curve" smooth="yes"/>
      <point x="383" y="962"/>
      <point x="340" y="986"/>
      <point x="296" y="1009" type="curve"/>
      <point x="157" y="934"/>
      <point x="117" y="746"/>
      <point x="117" y="535" type="curve" smooth="yes"/>
      <point x="117" y="312"/>
      <point x="162" y="63"/>
      <point x="182" y="-103" type="curve"/>
      <point x="77" y="-17"/>
      <point x="30" y="200"/>
      <point x="30" y="425" type="curve" smooth="yes"/>
      <point x="30" y="739"/>
      <point x="122" y="1066"/>
      <point x="277" y="1066" type="curve" smooth="yes"/>
      <point x="333" y="1066"/>
      <point x="396" y="1024"/>
    </contour>
  </outline>
</glyph>
